<svg width="207" height="257" viewBox="0 0 207 257" fill="none" xmlns="http://www.w3.org/2000/svg">
<path d="M55.4976 26.4391L58.9079 0H0V26.4391H55.4976Z" fill="white"/>
<path d="M39.8651 147.407L49.5666 72.2839H7.95523e-06V256.743H60.5813L80.069 147.407H39.8651Z" fill="#3688FF"/>
<path d="M192.441 59.361C182.803 40.2307 168.95 25.5705 150.924 15.3381C145.522 12.2662 139.782 9.6605 133.724 7.5208L115.422 103.702H159.778L76.3198 256.743H83.3947C109.47 256.743 131.711 251.574 150.161 241.236C168.59 230.897 182.655 216.131 192.378 196.959C202.079 177.765 206.93 154.8 206.93 128.043C206.93 101.286 202.1 78.5123 192.462 59.3821L192.441 59.361Z" fill="#3688FF"/>
</svg>
