<svg width="1187" height="257" viewBox="0 0 1187 257" fill="none" xmlns="http://www.w3.org/2000/svg">
<path d="M286.26 92.5581V70.7585H391.069V92.5581H351.882V199.098H325.532V92.5581H286.26Z" fill="#05213F"/>
<path d="M434.366 143.381V199.098H408.524V70.7585H433.837V126.836H431.761C434.281 118.807 438.115 112.578 443.263 108.193C448.41 103.807 455.04 101.604 463.195 101.604C469.846 101.604 475.672 103.045 480.628 105.947C485.585 108.85 489.461 113.002 492.215 118.446C494.969 123.891 496.346 130.352 496.346 137.873V199.12H470.418V142.364C470.418 136.39 468.872 131.708 465.822 128.319C462.75 124.929 458.493 123.234 453.028 123.234C449.405 123.234 446.186 124.018 443.347 125.607C440.509 127.196 438.285 129.463 436.717 132.45C435.129 135.437 434.345 139.081 434.345 143.381H434.366Z" fill="#05213F"/>
<path d="M551.504 200.306C544.853 200.306 539.007 198.865 534.029 195.963C529.03 193.061 525.175 188.908 522.442 183.485C519.71 178.062 518.354 171.579 518.354 164.058V102.812H544.196V159.567C544.196 165.541 545.743 170.223 548.856 173.613C551.949 177.002 556.207 178.697 561.608 178.697C565.273 178.697 568.535 177.913 571.331 176.324C574.148 174.735 576.33 172.447 577.919 169.439C579.507 166.431 580.291 162.787 580.291 158.55V102.833H606.218V199.12H581.753L581.414 175.096H582.875C580.354 183.188 576.478 189.417 571.289 193.781C566.099 198.145 559.511 200.327 551.525 200.327L551.504 200.306Z" fill="#05213F"/>
<path d="M653.984 143.381V199.098H628.142V102.812H652.523L652.946 126.836H651.4C653.921 118.807 657.755 112.578 662.902 108.193C668.049 103.807 674.679 101.604 682.834 101.604C689.486 101.604 695.311 103.045 700.268 105.947C705.224 108.85 709.079 113.002 711.812 118.446C714.544 123.87 715.9 130.352 715.9 137.873V199.12H690.058V142.364C690.058 136.39 688.511 131.708 685.461 128.319C682.389 124.929 678.132 123.234 672.667 123.234C669.045 123.234 665.825 124.018 662.987 125.607C660.148 127.196 657.924 129.463 656.356 132.45C654.768 135.437 653.984 139.081 653.984 143.381Z" fill="#05213F"/>
<path d="M773.071 200.751C765.721 200.751 759.07 198.844 753.138 195.031C747.186 191.217 742.505 185.625 739.052 178.231C735.599 170.859 733.884 161.812 733.884 151.135C733.884 140.458 735.663 131.009 739.222 123.658C742.78 116.307 747.525 110.799 753.435 107.112C759.345 103.447 765.869 101.604 772.986 101.604C778.43 101.604 782.984 102.515 786.585 104.358C790.208 106.201 793.131 108.468 795.376 111.159C797.621 113.849 799.273 116.476 800.375 118.997H801.243V70.7585H827.086V199.098H801.688V183.676H800.396C799.252 186.26 797.537 188.866 795.27 191.472C793.004 194.077 790.059 196.281 786.437 198.06C782.815 199.84 778.366 200.73 773.092 200.73L773.071 200.751ZM781.078 179.989C785.441 179.989 789.17 178.782 792.283 176.367C795.376 173.952 797.748 170.583 799.337 166.24C800.947 161.897 801.752 156.834 801.752 151.029C801.752 145.224 800.968 140.098 799.379 135.818C797.791 131.539 795.461 128.213 792.368 125.819C789.275 123.446 785.505 122.239 781.078 122.239C776.651 122.239 772.732 123.467 769.661 125.946C766.589 128.425 764.28 131.793 762.734 136.115C761.188 140.415 760.404 145.394 760.404 151.008C760.404 156.622 761.188 161.622 762.776 165.986C764.365 170.35 766.674 173.761 769.745 176.24C772.817 178.718 776.587 179.947 781.078 179.947V179.989Z" fill="#05213F"/>
<path d="M892.603 201.005C882.795 201.005 874.322 198.992 867.205 194.967C860.088 190.942 854.623 185.243 850.789 177.828C846.976 170.414 845.07 161.643 845.07 151.474C845.07 141.305 846.955 132.852 850.746 125.374C854.538 117.917 859.897 112.091 866.845 107.896C873.793 103.701 881.948 101.604 891.311 101.604C897.623 101.604 903.511 102.6 908.955 104.612C914.399 106.625 919.208 109.655 923.338 113.701C927.469 117.747 930.71 122.811 933.018 128.912C935.348 134.992 936.513 142.174 936.513 150.436V157.681H855.64V141.496H923.847L911.794 145.796C911.794 140.797 911.031 136.454 909.506 132.746C907.981 129.039 905.715 126.179 902.707 124.124C899.699 122.09 895.971 121.073 891.544 121.073C887.116 121.073 883.261 122.111 880.126 124.166C876.991 126.243 874.619 129.039 873.03 132.556C871.42 136.094 870.615 140.119 870.615 144.652V156.114C870.615 161.685 871.548 166.367 873.412 170.159C875.276 173.952 877.881 176.79 881.249 178.676C884.617 180.561 888.536 181.515 893.005 181.515C896.055 181.515 898.809 181.091 901.266 180.222C903.744 179.354 905.841 178.083 907.6 176.388C909.358 174.693 910.692 172.617 911.603 170.138L935.031 174.524C933.485 179.799 930.773 184.438 926.939 188.442C923.084 192.425 918.276 195.518 912.514 197.7C906.752 199.882 900.101 200.963 892.581 200.963L892.603 201.005Z" fill="#05213F"/>
<path d="M954.18 199.098V102.812H979.153V119.612H980.191C981.971 113.637 984.936 109.125 989.109 106.095C993.282 103.066 998.048 101.519 1003.45 101.519C1004.76 101.519 1006.2 101.583 1007.75 101.731C1009.3 101.88 1010.65 102.091 1011.8 102.388V125.48C1010.65 125.077 1008.98 124.76 1006.8 124.527C1004.61 124.293 1002.54 124.188 1000.59 124.188C996.692 124.188 993.155 125.035 989.999 126.73C986.843 128.425 984.385 130.776 982.627 133.784C980.869 136.793 980.001 140.31 980.001 144.335V199.12H954.158L954.18 199.098Z" fill="#05213F"/>
<path d="M1055.64 70.7797V199.12H1029.38V70.7797H1055.64Z" fill="#05213F"/>
<path d="M1105.15 70.7797V199.12H1078.88V70.7797H1105.15ZM1124.02 199.098H1090.78V176.451H1122.73C1130.99 176.451 1137.94 174.99 1143.53 172.066C1149.12 169.143 1153.34 164.609 1156.15 158.465C1158.97 152.322 1160.37 144.462 1160.37 134.865C1160.37 125.268 1158.95 117.514 1156.11 111.392C1153.27 105.269 1149.08 100.757 1143.53 97.8332C1137.98 94.9096 1131.12 93.4479 1122.9 93.4479H1090.17V70.8009H1124.44C1137.3 70.8009 1148.38 73.3643 1157.64 78.5123C1166.89 83.6603 1174.05 90.9904 1179.03 100.566C1184.03 110.121 1186.53 121.561 1186.53 134.886C1186.53 148.212 1184.03 159.757 1179.03 169.333C1174.03 178.93 1166.87 186.281 1157.55 191.429C1148.21 196.577 1137.05 199.141 1124 199.141L1124.02 199.098Z" fill="#05213F"/>
<path d="M55.4763 26.4391L58.8866 0H0V26.4391H55.4763Z" fill="#05213F"/>
<path d="M39.8438 147.407L49.5455 72.2839H4.9909e-05V256.743H60.5602L80.048 147.407H39.8438Z" fill="#3688FF"/>
<path d="M192.42 59.361C182.782 40.2307 168.929 25.5705 150.903 15.3381C145.501 12.2662 139.761 9.6605 133.703 7.5208L115.401 103.702H159.757L76.2987 256.743H83.3735C109.449 256.743 131.69 251.574 150.14 241.236C168.569 230.897 182.634 216.131 192.356 196.959C202.058 177.765 206.909 154.8 206.909 128.043C206.909 101.286 202.079 78.5123 192.441 59.3821L192.42 59.361Z" fill="#3688FF"/>
</svg>
