<?xml version="1.0" encoding="UTF-8"?>
<svg id="Layer_4" data-name="Layer 4" xmlns="http://www.w3.org/2000/svg" viewBox="0 0 500 143.3335483">
  <defs>
    <style>
      .cls-1, .cls-2, .cls-3, .cls-4 {
        fill: #fff;
      }

      .cls-2 {
        opacity: .6;
      }

      .cls-3 {
        opacity: .8;
      }

      .cls-4 {
        opacity: .3;
      }
    </style>
  </defs>
  <g>
    <path class="cls-1" d="M159.9959483,58.0680535c0-15.9882812,10.1796875-21.609375,19.2358398-21.609375,9.6176758,0,18.0493164,5.7460938,18.0493164,21.609375,0,14.2397461-7.5571289,21.421875-18.8613281,21.421875-11.6162109,0-18.4238281-7.2446289-18.4238281-21.421875Zm26.2929688,.1875c0-5.2460938-1.3740234-12.8657227-7.6816406-12.8657227-5.6210938,0-7.6196289,5.9956055-7.6196289,12.2412109,0,5.8081055,1.2490234,13.0527344,7.8691406,13.0527344,5.7460938,0,7.4321289-6.0581055,7.4321289-12.4282227Z"/>
    <path class="cls-1" d="M216.4578624,45.8268425c10.0551758,0,15.1142578,5.6835938,15.1142578,16.737793,0,11.1171875-5.3085938,17.1748047-13.9272461,17.1748047-1.6240234,0-3.4975586-.4370117-4.684082-.9990234v13.1152344h-10.4301758V48.2003777c5.059082-1.7490234,10.6796875-2.3735352,13.9272461-2.3735352Zm4.621582,17.237793c0-5.5585938-.9365234-9.3681641-4.9960938-9.3681641-1.2490234,0-2.3730469,.2495117-3.1225586,.4995117v17.0498047c.8115234,.5620117,2.2480469,.8745117,3.4345703,.8745117,3.6225586,0,4.684082-3.6850586,4.684082-9.0556641Z"/>
    <path class="cls-1" d="M235.0730967,63.6266472c0-9.0561523,5.4335938-17.7998047,16.0507812-17.7998047,6.5576172,0,10.9296875,3.1855469,10.9296875,9.8056641,0,8.9931641-9.7431641,10.9291992-16.3632812,11.3041992,.4375,2.6855469,2.3735352,5.0585938,6.1831055,5.0585938,2.9980469,0,5.7460938-1.3740234,7.6821289-2.6855469l2.8100586,6.8701172c-.3120117,.3120117-5.0585938,3.5595703-11.9912109,3.5595703-10.9291992,0-15.3012695-6.6201172-15.3012695-16.112793Zm17.9868164-7.9316406c0-1.5615234-.9990234-2.5610352-2.5605469-2.5610352-3.1225586,0-5.0585938,2.9355469-5.2460938,7.2451172,3.3725586-.1875,7.8066406-1.6240234,7.8066406-4.684082Z"/>
    <path class="cls-1" d="M265.8655772,46.8263542h8.6186523l.6245117,3.3725586c1.9985352-2.6855469,4.934082-4.3720703,9.1186523-4.3720703,6.1201172,0,9.9921875,3.4350586,9.9921875,11.0546875v21.8588867h-10.4296875v-20.0478516c0-2.9355469-.3745117-4.871582-2.8730469-4.871582-2.4980469,0-3.9970703,1.9985352-3.9970703,4.621582v20.2978516h-10.3671875v-25.5439453l-.6870117-6.3701172Z"/>
    <path class="cls-1" d="M308.3377452,37.2081902l4.871582,26.6679688h.125l4.8085938-23.5449219h10.3676758l4.434082,22.6708984h.1875l3.9345703-25.7939453h10.7421875l-8.3066406,41.5322266h-11.1791992l-5.0585938-22.5458984h-.25l-5.1835938,22.5458984h-11.4291992l-8.8061523-41.5322266h10.7421875Z"/>
    <path class="cls-1" d="M348.0633311,64.1886589c0-10.9921875,5.7460938-18.3618164,16.925293-18.3618164,2.1860352,0,7.0571289,.5625,12.0537109,2.4985352v23.6699219l.6870117,6.7451172h-8.8061523l-.4995117-2.9355469-.3125-.0625c-1.6860352,2.4360352-4.246582,3.9970703-7.8066406,3.9970703-9.6181641,0-12.2412109-7.4941406-12.2412109-15.5507812Zm18.6738281,4.496582v-15.0512695c-.7495117-.3125-1.7485352-.5-2.8725586-.5-4.1220703,0-5.4960938,4.934082-5.4960938,10.3051758,0,4.809082,.8745117,8.8061523,4.496582,8.8061523,2.4355469,0,3.8720703-1.7490234,3.8720703-3.5600586Z"/>
    <path class="cls-1" d="M383.3538585,67.4362175V35.334655h10.4301758v32.1015625c0,2.8105469,.7495117,4.1220703,2.7480469,4.1220703,.9365234,0,2.1855469-.375,3.6220703-.9995117l2.2485352,6.8701172c-2.2485352,1.6240234-5.9331055,2.3105469-8.7436523,2.3105469-9.6806641,0-10.3051758-6.3076172-10.3051758-12.3032227Z"/>
    <path class="cls-1" d="M404.4026866,67.4362175V35.334655h10.4301758v32.1015625c0,2.8105469,.7495117,4.1220703,2.7480469,4.1220703,.9365234,0,2.1855469-.375,3.6220703-.9995117l2.2485352,6.8701172c-2.2485352,1.6240234-5.9331055,2.3105469-8.7436523,2.3105469-9.6806641,0-10.3051758-6.3076172-10.3051758-12.3032227Z"/>
    <path class="cls-1" d="M424.0154796,63.6266472c0-9.0561523,5.4335938-17.7998047,16.0507812-17.7998047,6.5576172,0,10.9296875,3.1855469,10.9296875,9.8056641,0,8.9931641-9.7431641,10.9291992-16.3632812,11.3041992,.4375,2.6855469,2.3735352,5.0585938,6.1831055,5.0585938,2.9980469,0,5.7460938-1.3740234,7.6821289-2.6855469l2.8100586,6.8701172c-.3120117,.3120117-5.0585938,3.5595703-11.9912109,3.5595703-10.9291992,0-15.3012695-6.6201172-15.3012695-16.112793Zm17.9868164-7.9316406c0-1.5615234-.9990234-2.5610352-2.5605469-2.5610352-3.1225586,0-5.0585938,2.9355469-5.2460938,7.2451172,3.3725586-.1875,7.8066406-1.6240234,7.8066406-4.684082Z"/>
    <path class="cls-1" d="M455.4324717,67.8107292V35.334655h10.4921875v11.4916992h7.8071289v8.0566406h-7.8071289v12.4907227c0,3.4350586,1.6240234,4.496582,3.7475586,4.496582,1.1865234,0,2.3730469-.4995117,3.3725586-1.0615234l2.3105469,6.6201172c-1.9360352,1.3115234-5.4335938,2.3105469-8.9306641,2.3105469-10.2426758,0-10.9921875-6.0576172-10.9921875-11.9287109Z"/>
    <path class="cls-1" d="M166.2508311,99.6842644h12.3759766v2.0957031h-10.0253906v6.0888672h9.8271484v2.0957031h-9.8271484v8.609375h-2.3505859v-18.8896484Z"/>
    <path class="cls-1" d="M198.9373546,99.372741c5.5791016,0,9.3740234,4.1914062,9.3740234,9.7705078s-3.7949219,9.7705078-9.3740234,9.7705078c-5.6074219,0-9.3740234-4.1914062-9.3740234-9.7705078s3.7666016-9.7705078,9.3740234-9.7705078Zm0,2.0957031c-4.2480469,0-6.9384766,3.2568359-6.9384766,7.6748047,0,4.3896484,2.6904297,7.6748047,6.9384766,7.6748047,4.2197266,0,6.9384766-3.2851562,6.9384766-7.6748047,0-4.4179688-2.71875-7.6748047-6.9384766-7.6748047Z"/>
    <path class="cls-1" d="M220.4959483,99.6842644h2.3505859v11.4980469c0,3.4550781,1.8691406,5.6357422,5.3525391,5.6357422s5.3525391-2.1806641,5.3525391-5.6357422v-11.4980469h2.3505859v11.5263672c0,4.7011719-2.5771484,7.703125-7.703125,7.703125s-7.703125-3.0302734-7.703125-7.6748047v-11.5546875Z"/>
    <path class="cls-1" d="M251.1727061,103.3375847v15.2363281h-2.3505859v-18.8896484h2.4072266l10.875,14.9248047v-14.9248047h2.3505859v18.8896484h-2.265625l-11.0166016-15.2363281Z"/>
    <path class="cls-1" d="M277.3753428,99.6842644h6.4570312c5.8623047,0,9.6855469,4.1064453,9.6855469,9.4589844,0,5.3808594-3.8232422,9.4306641-9.6855469,9.4306641h-6.4570312v-18.8896484Zm6.4570312,16.7939453c4.5878906,0,7.25-3.2851562,7.25-7.3349609,0-4.078125-2.5771484-7.3632812-7.25-7.3632812h-4.1064453v14.6982422h4.1064453Z"/>
    <path class="cls-1" d="M316.5486827,114.3825066h-9.5722656l-1.6708984,4.1914062h-2.6054688l7.5898438-18.8896484h2.9169922l7.6181641,18.8896484h-2.6054688l-1.6708984-4.1914062Zm-8.8925781-2.0957031h8.1845703l-4.078125-10.5068359-4.1064453,10.5068359Z"/>
    <path class="cls-1" d="M334.5657725,101.7799675h-5.9755859v-2.0957031h14.3300781v2.0957031h-6.0039062v16.7939453h-2.3505859v-16.7939453Z"/>
    <path class="cls-1" d="M354.5369639,99.6842644h2.3505859v18.8896484h-2.3505859v-18.8896484Z"/>
    <path class="cls-1" d="M378.4144053,99.372741c5.5791016,0,9.3740234,4.1914062,9.3740234,9.7705078s-3.7949219,9.7705078-9.3740234,9.7705078c-5.6074219,0-9.3740234-4.1914062-9.3740234-9.7705078s3.7666016-9.7705078,9.3740234-9.7705078Zm0,2.0957031c-4.2480469,0-6.9384766,3.2568359-6.9384766,7.6748047,0,4.3896484,2.6904297,7.6748047,6.9384766,7.6748047,4.2197266,0,6.9384766-3.2851562,6.9384766-7.6748047,0-4.4179688-2.71875-7.6748047-6.9384766-7.6748047Z"/>
    <path class="cls-1" d="M402.3230967,103.3375847v15.2363281h-2.3505859v-18.8896484h2.4072266l10.875,14.9248047v-14.9248047h2.3505859v18.8896484h-2.265625l-11.0166016-15.2363281Z"/>
  </g>
  <g>
    <path class="cls-4" d="M108.7281414,13.1476693l37.8635271,21.298234c.4961793,.2791009,.7419223,.857556,.5983436,1.4084429l-18.4642546,70.8442075c-.2024871,.7769085-1.0730266,1.1657414-1.7867508,.7980653l-39.06472-20.1242497c-.5261871-.2710661-.7909998-.8733023-.6350817-1.4443008L106.9046524,13.9098767c.2148973-.7869902,1.112455-1.1621639,1.8234889-.7622074Z"/>
    <path class="cls-4" d="M68.7110851,35.8051315l38.3624272,22.7488395c.2330099,.1383228,.4149138,.3484382,.5184473,.5988531l21.1685901,46.8029341c.4481283,1.0838808-.7050142,2.134459-1.7425867,1.5875953l-39.1071012-20.1171535c-.2747414-.1448054-.485934-.38646-.5926388-.67812l-20.4239161-49.4346201c-.4049814-1.1069491,.8032117-2.1100171,1.8167782-1.5083284Z"/>
    <path class="cls-2" d="M68.7317178,35.7930945l37.8841899,22.4937378c.4876144,.289521,.7200667,.8703883,.5668072,1.4163752l-19.3779626,69.0339919c-.2143859,.7637497-1.0754329,1.1387258-1.7806283,.7754433l-39.0781221-20.1311538c-.5320348-.2740785-.7960532-.8860769-.6303508-1.461162l20.5718948-71.3965759c.2272275-.7886132,1.1384919-1.149654,1.8441719-.7306565Z"/>
    <path class="cls-3" d="M21.2323176,38.0154352l38.3384997,21.4781994c.2467786,.1388129,.4392825,.3570971,.5461531,.6192943l27.6348343,67.7994992c.4393206,1.0778323-.6998593,2.1202417-1.7345603,1.5872139l-39.5615639-20.3707428c-.2738077-.1410525-.4860881-.3779907-.5963245-.6655918L19.447586,39.5563515c-.4200675-1.0959347,.7617791-2.1163272,1.7847317-1.5409164Z"/>
  </g>
</svg>
